<?xml version="1.0" encoding="UTF-8"?>
<svg id="Layer_1" xmlns="http://www.w3.org/2000/svg" version="1.1" viewBox="0 0 1080 1080">
  <!-- Generator: Adobe Illustrator 30.3.0, SVG Export Plug-In . SVG Version: 2.1.1 Build 22)  -->
  <defs>
    <style>
      .st0 {
        fill: #fff;
      }
    </style>
  </defs>
  <g>
    <path class="st0" d="M479.26,440.94c0-6.59,6.31-7.59,14.32-7.59s18.75,2.72,30.64,8.73l2.72-21.75c-12.31-4.3-21.62-7.01-36.93-7.01-19.04,0-36.22,8.3-36.22,28.92,0,34.92,49.96,28.92,49.96,42.95,0,7.01-8.45,8.3-16.74,8.3-9.73,0-23.62-2.72-33.5-8.87v21.9c13.17,5.73,24.77,7.01,37.06,7.01,19.32,0,38.51-7.87,38.51-30.64,0-34.09-49.81-28.22-49.81-41.95"/>
    <polygon class="st0" points="545.25 512.06 570.01 512.06 570.01 413.45 545.25 416.02 545.25 512.06"/>
    <polygon class="st0" points="657.6 473.7 614.52 414.74 590.34 414.74 590.34 512.06 612.67 512.06 612.67 451.95 655.75 512.06 679.93 512.06 679.93 413.45 657.6 416.02 657.6 473.7"/>
    <path class="st0" d="M703.55,434.77h23.91v44.08c0,10.02-6.02,14.6-15.31,14.6-5.29,0-12.88-.86-18.04-2.29l-2.58,19.9c7.01,1.43,14.89,2.43,23.05,2.43,26.05,0,37.64-12.46,37.64-34.06v-64.7h-48.66v20.05h0Z"/>
    <path class="st0" d="M798.73,415.31l-37.64,96.75h25.48l6.59-18.04h39.93l6.73,19.32,24.9-2.58-36.5-98.05-29.49,2.59ZM800.32,473.99l13.02-36.07,12.75,36.07h-25.76Z"/>
    <path class="st0" d="M941.45,461.39c10.45-3.44,13.88-12.02,13.88-19.9,0-17.89-12.88-26.76-37.79-26.76h-43.08v97.33h46.08c25.06,0,37.65-8.3,37.65-28.19,0-9.59-4.59-19.75-16.74-22.48M899.21,434.77h18.04c9.16,0,12.6,3.29,12.6,9.31s-3.44,9.16-12.6,9.16h-18.04v-18.46ZM920.4,492.03h-21.18v-20.03h21.18c9.16.14,12.31,4.01,12.31,10.02s-3.15,10.02-12.31,10.02"/>
    <polygon class="st0" points="492.56 653.78 507.6 668.52 522.34 653.78 507.47 639.03 492.56 653.78"/>
    <path class="st0" d="M550.52,593.52c0,10.17-3.86,14.6-12.02,14.6h-46.35c-14.32,0-20.76-4.72-20.76-15.6,0-3,.42-7.3,1.43-14.03l-19.19-2.29c-2.01,9.16-2.72,17.75-2.72,23.18,0,21.62,12.02,32.34,35.64,32.34h52.64c22.33-.29,33.49-10.59,33.49-30.05v-42.51l-22.33,2.72.15,31.63Z"/>
    <polygon class="st0" points="672.75 651.91 687.79 666.66 702.52 651.91 687.64 637.17 672.75 651.91"/>
    <polygon class="st0" points="793.73 550.44 778.84 535.7 763.96 550.44 778.99 565.17 793.73 550.44"/>
    <path class="st0" d="M934,561.74v31.77c0,9.59-4.15,14.6-11.89,14.6-4.01,0-7.44-.57-11.03-1.72.14-1.57.29-3.15.29-4.72v-27.91l-22.33,2.58.15,17.18c0,10.17-3.86,14.6-12.02,14.6-3.73,0-7.15-.71-10.74-2.14.14-1.43.29-2.87.29-4.3v-27.91l-22.48,2.58.15,17.18c0,10.17-3.86,14.6-11.87,14.6h-27.77c-6,0-10.74-1.57-15.02-4.15v-30.2l-22.33,2.58.15,17.18c0,10.17-3.86,14.6-11.89,14.6-.05,0-.09.02-.14.03-.05,0-.09-.03-.15-.03h-26.79c-4.15-.15-7.3-.57-9.58-1.57l3.58-18.6c-33.07-23.05-43.94-28.34-56.54-28.34-6.15,0-12.6,1.43-20.61,4.87l4.15,19.75c5.87-1.15,9.16-2.01,13.74-2.01,9.59,0,17.18,3.86,36.35,16.89-17.18,6.59-32.07,9.02-59.12,9.02h-16.02s-.05.02-.08.02-.05-.02-.08-.02c-8.16,0-11.87-4.59-11.87-14.74l-.14-66.13-22.33,2.58.14,71.56c0,20.18,11.31,30.33,34.35,30.33h16.02c25.63,0,43.23-3.86,65.27-14.6,3.44,9.16,11.6,14.6,22.61,14.6h26.93c12.6,0,21.75-3.15,27.48-9.16,5.87,5.87,13.46,9.16,21.9,9.16h27.77c11.45,0,20.03-3,25.76-8.45,7.01,5.73,14.03,8.45,21.18,8.45,9.59,0,17.47-3,23.05-8.01,8.01,5.45,15.75,8.01,23.76,8.01,19.75,0,30.06-10.59,30.06-30.06v-42.51l-22.36,2.53Z"/>
  </g>
  <path class="st0" d="M416.08,576.93l-66.85-38.65-11.62,20.09,55.47,32.07c-1.22.5-2.56.78-3.94.78-.65,0-1.3-.06-1.93-.18-6.56-1.27-13.3-1.92-20.03-1.92-20.64,0-40.47,5.93-57.59,17.2,2.73-4.66,5.75-9.17,9.02-13.5,4.5-5.88,6.86-12.91,6.86-20.35,0-18.51-15.05-33.56-33.56-33.56-5.51,0-10.97,1.37-15.78,3.94-19.96,10.59-42.52,16.2-65.27,16.2-10.54,0-20.91-1.13-30.82-3.36-9.22-2.07-17.66-7.01-24.03-14.04.51-.56,1.04-1.12,1.58-1.66,8.7-8.7,20.26-13.5,32.52-13.5l70.55.02c28.03,0,54.38-10.91,74.2-30.73,19.82-19.82,30.74-46.17,30.74-74.2v-2.16c-.09-4.42-2.69-8.42-6.7-10.29s-8.73-1.3-12.19,1.49c-12.14,9.8-25.69,17.44-40.28,22.69-15.1,5.45-30.97,8.21-47.17,8.21l-69.09.02c-38.19,0-69.25,31.07-69.25,69.25,0,10.73,2.52,21.3,7.24,30.8-4.74,9.49-7.24,20.03-7.24,30.97,0,18.49,7.21,35.89,20.29,48.96,13.08,13.08,30.47,20.29,48.96,20.29,11.52,0,22.94-2.9,33.02-8.37l-.02-.02c.09-.05.18-.09.26-.14,6.64-3.59,13.08-7.69,19.16-12.17,5.16-3.8,6.24-11.07,2.44-16.23-3.8-5.16-11.07-6.25-16.23-2.44-5.22,3.85-10.74,7.36-16.43,10.44-.12.06-.24.14-.36.21-6.67,3.61-14.22,5.51-21.86,5.51-12.29,0-23.86-4.8-32.57-13.49-8.7-8.7-13.49-20.26-13.49-32.57,0-3.15.32-6.26.92-9.28,8.57,7.33,18.86,12.55,29.88,15.02,11.58,2.61,23.67,3.94,35.92,3.94,26.53,0,52.87-6.53,76.19-18.92,1.51-.8,3.14-1.21,4.87-1.21,5.72,0,10.36,4.65,10.36,10.36,0,2.29-.72,4.47-2.11,6.28-.02.02-.03.03-.03.05-18,23.79-29.08,52.03-32.05,81.67-.59,5.81,3.24,11.15,8.93,12.46.87.2,1.75.3,2.62.3,4.75,0,9.16-2.94,10.88-7.57,5.75-15.49,15.94-28.75,29.49-38.34,13.83-9.8,30.15-14.98,47.17-14.98,5.26,0,10.54.5,15.66,1.49.02,0,.05,0,.06.02,2.05.39,4.15.59,6.25.59,14.86,0,28.13-9.96,32.27-24.23,1.51-5.11-.69-10.59-5.31-13.26M145.05,519.98c-.6-2.99-.91-6.06-.91-9.2,0-25.39,20.67-46.05,46.05-46.05l69.09-.02c18.89,0,37.41-3.23,55.04-9.58,8.69-3.14,17.06-6.98,25.07-11.54-9.65,34.39-41.29,59.69-78.73,59.69l-70.55-.02c-16.7-.02-32.51,5.9-45.07,16.71"/>
</svg>