<?xml version="1.0" encoding="UTF-8"?>
<svg id="Layer_1" xmlns="http://www.w3.org/2000/svg" version="1.1" viewBox="0 0 841.89 300.28">
  <!-- Generator: Adobe Illustrator 30.3.0, SVG Export Plug-In . SVG Version: 2.1.1 Build 22)  -->
  <defs>
    <style>
      .st0 {
        fill: #fff;
      }
    </style>
  </defs>
  <g>
    <path class="st0" d="M360.58,50.35c0-6.6,6.31-7.6,14.33-7.6s18.77,2.72,30.67,8.74l2.72-21.77c-12.32-4.3-21.64-7.02-36.96-7.02-19.06,0-36.25,8.3-36.25,28.95,0,34.96,50.01,28.95,50.01,42.99,0,7.02-8.46,8.3-16.76,8.3-9.74,0-23.65-2.72-33.54-8.88v21.93c13.18,5.74,24.79,7.02,37.1,7.02,19.34,0,38.55-7.88,38.55-30.67,0-34.13-49.86-28.25-49.86-41.99"/>
    <polygon class="st0" points="426.64 121.55 451.42 121.55 451.42 22.84 426.64 25.41 426.64 121.55"/>
    <polygon class="st0" points="539.1 83.15 495.98 24.12 471.77 24.12 471.77 121.55 494.12 121.55 494.12 61.37 537.24 121.55 561.45 121.55 561.45 22.84 539.1 25.41 539.1 83.15"/>
    <path class="st0" d="M585.1,44.17h23.93v44.12c0,10.03-6.02,14.62-15.33,14.62-5.3,0-12.9-.86-18.06-2.3l-2.58,19.92c7.02,1.43,14.9,2.43,23.07,2.43,26.08,0,37.67-12.47,37.67-34.1V24.11h-48.71v20.07h0Z"/>
    <path class="st0" d="M680.38,24.7l-37.67,96.85h25.5l6.6-18.06h39.97l6.73,19.34,24.93-2.58-36.54-98.15-29.52,2.6ZM681.96,83.43l13.03-36.1,12.76,36.1h-25.79Z"/>
    <path class="st0" d="M823.24,70.83c10.46-3.44,13.89-12.03,13.89-19.92,0-17.91-12.9-26.79-37.83-26.79h-43.13v97.42h46.13c25.08,0,37.69-8.3,37.69-28.22,0-9.6-4.59-19.77-16.76-22.5M780.96,44.17h18.06c9.17,0,12.61,3.29,12.61,9.32s-3.44,9.17-12.61,9.17h-18.06v-18.48ZM802.17,101.49h-21.2v-20.05h21.2c9.17.14,12.32,4.02,12.32,10.03s-3.16,10.03-12.32,10.03"/>
    <polygon class="st0" points="373.89 263.41 388.95 278.16 403.7 263.41 388.81 248.64 373.89 263.41"/>
    <path class="st0" d="M431.91,203.09c0,10.18-3.87,14.62-12.03,14.62h-46.4c-14.33,0-20.78-4.73-20.78-15.61,0-3,.42-7.31,1.43-14.04l-19.21-2.3c-2.01,9.17-2.72,17.77-2.72,23.21,0,21.64,12.03,32.37,35.68,32.37h52.7c22.35-.29,33.52-10.6,33.52-30.08v-42.55l-22.35,2.72.15,31.66Z"/>
    <polygon class="st0" points="554.26 261.54 569.32 276.31 584.07 261.54 569.17 246.79 554.26 261.54"/>
    <polygon class="st0" points="675.36 159.96 660.46 145.21 645.57 159.96 660.61 174.71 675.36 159.96"/>
    <path class="st0" d="M815.78,171.27v31.8c0,9.6-4.15,14.62-11.9,14.62-4.02,0-7.44-.57-11.04-1.72.14-1.57.29-3.16.29-4.73v-27.93l-22.35,2.58.15,17.2c0,10.18-3.87,14.62-12.03,14.62-3.73,0-7.16-.71-10.75-2.14.14-1.43.29-2.87.29-4.3v-27.93l-22.5,2.58.15,17.2c0,10.18-3.87,14.62-11.88,14.62h-27.8c-6.01,0-10.75-1.57-15.04-4.15v-30.23l-22.35,2.58.15,17.2c0,10.18-3.87,14.62-11.9,14.62-.05,0-.09.02-.14.03-.05,0-.09-.03-.15-.03h-26.82c-4.15-.15-7.31-.57-9.59-1.57l3.58-18.62c-33.1-23.07-43.99-28.37-56.59-28.37-6.16,0-12.61,1.43-20.63,4.88l4.15,19.77c5.87-1.15,9.17-2.01,13.76-2.01,9.6,0,17.2,3.87,36.39,16.91-17.2,6.6-32.1,9.03-59.18,9.03h-16.04s-.05.02-.08.02-.05-.02-.08-.02c-8.17,0-11.88-4.59-11.88-14.75l-.14-66.2-22.35,2.58.14,71.63c0,20.2,11.32,30.37,34.38,30.37h16.04c25.65,0,43.28-3.87,65.34-14.62,3.44,9.17,11.61,14.62,22.63,14.62h26.95c12.61,0,21.77-3.16,27.51-9.17,5.87,5.87,13.47,9.17,21.93,9.17h27.8c11.46,0,20.05-3,25.79-8.46,7.02,5.74,14.04,8.46,21.2,8.46,9.6,0,17.49-3,23.07-8.02,8.02,5.45,15.76,8.02,23.78,8.02,19.77,0,30.09-10.6,30.09-30.09v-42.55l-22.38,2.54Z"/>
  </g>
  <path class="st0" d="M297.34,186.48l-66.92-38.69-11.63,20.11,55.52,32.1c-1.22.5-2.57.79-3.94.79-.65,0-1.3-.06-1.93-.18-6.57-1.27-13.32-1.92-20.05-1.92-20.66,0-40.51,5.93-57.65,17.21,2.73-4.67,5.75-9.18,9.03-13.51,4.5-5.89,6.87-12.93,6.87-20.37,0-18.53-15.07-33.6-33.6-33.6-5.51,0-10.98,1.37-15.79,3.94-19.98,10.6-42.57,16.22-65.34,16.22-10.55,0-20.93-1.13-30.85-3.37-9.23-2.07-17.68-7.02-24.05-14.06.51-.56,1.04-1.12,1.59-1.66,8.71-8.71,20.28-13.51,32.56-13.51l70.62.02c28.06,0,54.44-10.92,74.28-30.76,19.84-19.84,30.77-46.22,30.77-74.28v-2.16c-.09-4.42-2.69-8.43-6.7-10.3s-8.74-1.3-12.2,1.49c-12.16,9.81-25.72,17.46-40.32,22.71-15.12,5.45-31,8.21-47.22,8.21l-69.16.02C32.98,50.94,1.89,82.05,1.89,120.26c0,10.74,2.52,21.32,7.25,30.83-4.74,9.5-7.25,20.05-7.25,31,0,18.51,7.22,35.92,20.31,49.01,13.09,13.09,30.5,20.31,49.01,20.31,11.54,0,22.97-2.9,33.05-8.38l-.02-.02c.09-.05.18-.09.26-.14,6.64-3.59,13.09-7.7,19.18-12.19,5.16-3.81,6.25-11.08,2.45-16.25-3.81-5.16-11.08-6.25-16.25-2.45-5.22,3.85-10.75,7.37-16.44,10.45-.12.06-.24.14-.36.21-6.67,3.61-14.24,5.51-21.88,5.51-12.31,0-23.89-4.8-32.6-13.5-8.71-8.71-13.5-20.28-13.5-32.6,0-3.16.32-6.27.92-9.29,8.58,7.34,18.87,12.56,29.91,15.04,11.6,2.61,23.69,3.94,35.95,3.94,26.56,0,52.93-6.54,76.27-18.94,1.51-.8,3.14-1.21,4.88-1.21,5.72,0,10.37,4.65,10.37,10.37,0,2.3-.72,4.47-2.11,6.28-.02.02-.03.03-.03.05-18.01,23.81-29.11,52.08-32.09,81.75-.59,5.81,3.25,11.16,8.94,12.47.88.2,1.75.3,2.63.3,4.76,0,9.17-2.94,10.89-7.58,5.75-15.51,15.96-28.78,29.52-38.38,13.85-9.81,30.18-14.99,47.22-14.99,5.27,0,10.55.5,15.67,1.49.02,0,.05,0,.06.02,2.05.39,4.15.59,6.25.59,14.87,0,28.16-9.97,32.3-24.25,1.51-5.12-.69-10.6-5.32-13.27M26.02,129.47c-.6-2.99-.91-6.07-.91-9.21,0-25.41,20.69-46.1,46.1-46.1l69.16-.02c18.91,0,37.45-3.23,55.1-9.59,8.7-3.14,17.08-6.99,25.1-11.55-9.66,34.43-41.33,59.75-78.81,59.75l-70.62-.02c-16.72-.02-32.54,5.9-45.12,16.73"/>
</svg>